<?xml version="1.0" encoding="UTF-8"?> <svg xmlns="http://www.w3.org/2000/svg" id="Layer_1" height="512" viewBox="0 0 480 480" width="512"><path d="m371.61 241.386.051-74.948c.018-26.188-21.16-47.396-47.354-47.414l-117.696-.08c-26.321 0-47.4 21.267-47.418 47.354l-.034 49.809c-.003 4.416-3.584 7.994-8 7.994-4.421 0-8.003-3.585-8-8.006l.034-49.809c.024-34.999 28.349-63.343 63.384-63.343.078 0 117.663.08 117.742.08 35.032.024 63.367 28.388 63.343 63.426 0 .222-.049 75.6-.055 75.822-.139 17.086-3.739 33.592-10.704 49.075-1.333 2.964-4.249 4.72-7.3 4.72-5.761 0-9.681-5.972-7.292-11.284 6.15-13.673 9.279-28.273 9.299-43.396zm-268.573 125.937c-3.823-2.213-8.718-.907-10.931 2.916-8.23 14.22-12.586 30.467-12.598 46.983l-.037 54.528c-.003 4.419 3.576 8.003 7.995 8.006 4.436 0 8.002-3.59 8.005-7.994l.037-54.528c.009-13.711 3.622-27.189 10.445-38.979 2.214-3.824.908-8.719-2.916-10.932zm19.296-182.55c4.429 0 8.002-3.584 8.005-7.995l.054-80.003c.009-12.764 10.394-23.14 23.155-23.14 3.343 0 6.248-2.031 7.447-5.023 12.517-31.228 42.906-52.612 77.823-52.612l125.905.086-12.078 31.854c-1.654 4.361.764 9.214 5.248 10.518l15.994 4.649c15.785 4.59 27.774 19.064 27.823 36.783l-.075 109.526c-.003 4.419 3.576 8.003 7.995 8.006 4.436 0 8.002-3.591 8.005-7.994 0-.678.076-109.276.074-109.954-.083-23.746-16.267-45.019-39.355-51.73l-7.675-2.231 13.112-34.583c1.983-5.229-1.885-10.832-7.475-10.836-.123 0-137.441-.094-137.556-.094-39.138 0-74.427 22.834-90.615 58.007-19.031 2.639-33.738 19.009-33.752 38.757l-.054 80.005c-.003 4.418 3.577 8.002 7.995 8.004zm232.975 138.578c-33.611-.298-53.788 9.867-78.873 20.196-15.98 6.582-34.275 3.939-47.743-6.894l-51.642-41.53c-3.443-2.768-8.479-2.223-11.248 1.221-2.769 3.443-2.222 8.479 1.221 11.248l51.642 41.529c18.015 14.489 42.486 18.023 63.862 9.221 26.862-11.061 42.462-19.261 74.382-18.976 43.134.028 78.024 34.957 77.995 78.099l-.037 54.529c-.003 4.419 3.576 8.003 7.995 8.006 4.436 0 8.002-3.59 8.005-7.994l.037-54.529c.033-49.067-38.029-93.591-95.596-94.126zm3.431 121.989c0 4.418-3.582 8-8 8h-75.717c-32.536 0-64.009-13.566-86.349-37.221l-85.384-90.21c-12.585 1.605-25.558-2.645-34.748-11.834l-28.806-28.805c-13.58-13.581-14.243-35.481-1.509-49.858 12.977-14.651 35.031-16.448 50.21-4.095l2.049 1.668c.307-.202.619-.398.952-.557 19.17-9.116 41.602-4.601 53.34 10.735 11.649 15.223 6.983 33.617 5.929 37.149-.763 2.546-.147 1.397-33.59 36.931l83.182 87.884c19.337 20.474 46.57 32.213 74.723 32.213h75.717c4.42 0 8.001 3.582 8.001 8zm-256.705-135.416 33.764-35.875c4.707-21.802-12.898-33.795-31.03-29.439l12.168 9.904c3.427 2.789 3.943 7.828 1.154 11.254-2.789 3.428-7.827 3.944-11.255 1.154l-28.499-23.197c-8.505-6.922-20.862-5.915-28.133 2.295-7.135 8.055-6.764 20.326.846 27.936l28.805 28.805c5.808 5.806 14.139 8.447 22.18 7.163zm227.797-138.238c-2.651-3.535-7.665-4.252-11.2-1.601l-30.77 23.077c-4.268 3.2-4.258 9.605 0 12.801l30.77 23.078c3.544 2.657 8.556 1.925 11.2-1.601 2.651-3.534 1.935-8.549-1.6-11.2l-22.237-16.678 22.236-16.677c3.535-2.651 4.251-7.665 1.601-11.199zm-122.436 58.955c1.67 0 3.355-.521 4.794-1.6l30.77-23.078c4.267-3.203 4.259-9.607 0-12.801l-30.77-23.077c-3.534-2.651-8.549-1.935-11.2 1.601-2.651 3.534-1.935 8.549 1.6 11.2l22.236 16.677-22.237 16.678c-6.144 4.609-2.838 14.403 4.807 14.4z"></path></svg> 