<?xml version="1.0" encoding="UTF-8"?> <svg xmlns="http://www.w3.org/2000/svg" id="Capa_1" height="512" viewBox="0 0 512 512" width="512"><g><path d="m145.077 350.097c-4.141 0-7.5 3.358-7.5 7.5v8.773c0 4.142 3.358 7.5 7.5 7.5s7.5-3.357 7.5-7.5v-8.773c0-4.142-3.357-7.5-7.5-7.5z"></path><path d="m236.394 350.097c-4.141 0-7.5 3.358-7.5 7.5v8.773c0 4.142 3.358 7.5 7.5 7.5s7.5-3.357 7.5-7.5v-8.773c-.001-4.142-3.358-7.5-7.5-7.5z"></path><path d="m207.701 360.456c-3.122-2.721-7.86-2.396-10.581.727-3.375 3.874-9.381 3.886-12.767 0-2.722-3.122-7.459-3.448-10.581-.727-3.123 2.721-3.448 7.459-.727 10.581 9.362 10.743 26.03 10.73 35.383 0 2.72-3.123 2.395-7.86-.727-10.581z"></path><path d="m268.447 266.395c-4.142 0-7.5 3.358-7.5 7.5v9.395c0 4.142 3.358 7.5 7.5 7.5s7.5-3.358 7.5-7.5v-9.395c0-4.142-3.358-7.5-7.5-7.5z"></path><path d="m366.236 266.395c-4.142 0-7.5 3.358-7.5 7.5v9.395c0 4.142 3.358 7.5 7.5 7.5s7.5-3.358 7.5-7.5v-9.395c0-4.142-3.358-7.5-7.5-7.5z"></path><path d="m335.16 277.357c-3.122-2.722-7.86-2.395-10.581.727-3.828 4.392-10.635 4.405-14.474 0-2.721-3.122-7.459-3.448-10.58-.727-3.123 2.722-3.448 7.459-.727 10.581 9.812 11.26 27.286 11.248 37.089 0 2.721-3.123 2.395-7.86-.727-10.581z"></path><path d="m288.825 396.997c-4.142 0-7.5 3.358-7.5 7.5v7.561c0 4.141 3.358 7.5 7.5 7.5s7.5-3.358 7.5-7.5v-7.561c-.001-4.142-3.358-7.5-7.5-7.5z"></path><path d="m367.516 396.997c-4.142 0-7.5 3.358-7.5 7.5v7.561c0 4.141 3.358 7.5 7.5 7.5s7.5-3.358 7.5-7.5v-7.561c0-4.142-3.358-7.5-7.5-7.5z"></path><path d="m343.471 406.178c-3.123-2.721-7.86-2.395-10.581.727-2.498 2.866-6.934 2.874-9.439 0-2.722-3.123-7.458-3.448-10.581-.728-3.122 2.721-3.449 7.459-.727 10.581 8.48 9.731 23.583 9.721 32.055 0 2.721-3.122 2.396-7.859-.727-10.58z"></path><path d="m401.122 240.33v-.001s0-.001-.001-.001v-.001s0-.001-.001-.001c-16.241-32.84-49.075-53.24-85.692-53.24-33.525 0-64.006 17.09-81.539 45.715v.001c-7.331 11.975-11.889 25.398-13.426 39.311-9.354-3.26-19.366-5.024-29.726-5.024-5.19 0-10.289.451-15.266 1.298-3.526-16.869-18.511-29.58-36.413-29.58-20.512 0-37.2 16.688-37.2 37.2 0 12.016 5.678 22.935 14.99 29.831-4.939 7.19-8.903 15.186-11.649 23.851 0 .001-.001.002-.001.004 0 .001-.001.002-.001.003s-.001.002-.001.003-.001.002-.001.003c-2.778 8.747-4.186 17.872-4.186 27.123 0 49.475 40.252 89.727 89.728 89.727 22.808 0 44.673-8.805 61.147-24.124 8.103 34.63 39.216 60.506 76.28 60.506 43.211 0 78.365-35.15 78.365-78.356 0-21.081-8.332-40.591-22.749-55.167 17.383-17.79 27.212-41.682 27.212-66.764-.001-14.849-3.321-29.087-9.87-42.317zm-85.695-38.247c27.574 0 52.605 13.725 67.395 36.388-68.602 13.579-60.878-16.754-125.763-11.398 15.034-15.874 35.891-24.99 58.368-24.99zm68.596 172.587c-14.927-2.588-28.296-6.555-41.582-13.334-4.47-2.328-9.373-3.491-14.274-3.491-15.385.002-18.493 10.405-55.851 16.826 24.015-44.691 87.748-44.379 111.707-.001zm-125.42-49.096c-21.108 1.656-47.943-1.128-62.415-16.454-1.417-1.5-3.389-2.35-5.452-2.35-7.202 0-15.243 22.712-67.625 18.827-.097-.007-.187-.015-.282-.022 11.951-26.115 38.303-43.488 67.907-43.488 30.99 0 56.381 18.668 67.867 43.487zm-141.747-49.567c0-12.242 9.959-22.201 22.201-22.201 10.925 0 20.032 7.932 21.864 18.339-13.134 4.594-24.951 12.168-34.565 22.076-5.891-4.085-9.5-10.806-9.5-18.214zm73.88 155.546c-41.206 0-74.728-33.523-74.728-74.728 0-5.629.624-11.198 1.861-16.627 24.372 2.474 53.718-.247 72.867-15.735 19.117 15.46 48.318 18.167 72.864 15.734 1.334 5.872 1.945 11.882 1.845 17.434-9.803 13.077-15.212 28.93-15.61 44.898-14.12 18.218-36.035 29.024-59.099 29.024zm137.427 36.383c-40.482 0-70.588-37.612-61.833-77.201 18.717-2.361 37.909-7.444 54.505-16.096 4.714-2.457 10.195-2.336 14.676 0 16.532 8.617 35.934 13.764 54.503 16.095 8.837 39.614-21.402 77.202-61.851 77.202zm44.057-128.16c-28.249-19.27-66.042-17.891-92.786 3.434-.31-2.374-1.473-8.246-3.148-13.51v-.001c-6.863-21.676-21.574-39.902-41.313-51.044.608-12.329 4.021-24.322 9.988-35.074 77.956-11.537 61.788 26.382 145.117 8.719 3.927 9.612 5.914 19.795 5.914 30.348 0 21.54-8.598 42.046-23.772 57.128z"></path><path d="m27.636 213.383c7.041 11.612 20.486 17.728 33.943 15.373v217.764c0 36.106 29.374 65.48 65.48 65.48h257.882c36.106 0 65.48-29.374 65.48-65.48v-217.764c1.883.329 3.779.509 5.669.509 11.165-.001 22.074-5.658 28.274-15.883l20.015-33.007c9.436-15.56 4.453-35.895-11.107-45.331l-124.42-75.448c-3.541-2.147-8.154-1.017-10.301 2.524-2.148 3.542-1.018 8.154 2.524 10.302l124.421 75.448c8.508 5.16 11.219 16.219 6.059 24.729l-20.015 33.007c-5.147 8.487-16.24 11.206-24.728 6.06 0 0-.001 0-.001-.001l-186.922-113.349c-2.39-1.449-5.387-1.449-7.777 0l-118.048 71.584c-3.547 2.151-4.669 6.764-2.524 10.302 2.148 3.542 6.76 4.671 10.301 2.524l114.159-69.227 179.422 108.801v224.22c0 27.835-22.646 50.481-50.481 50.481h-257.882c-27.835 0-50.481-22.646-50.481-50.481v-224.22l38.809-23.533c3.541-2.147 4.672-6.76 2.524-10.301-2.147-3.542-6.76-4.671-10.301-2.524l-42.42 25.723s0 0-.001 0c-8.488 5.146-19.58 2.428-24.728-6.06l-20.016-33.008c-5.147-8.488-2.429-19.581 6.059-24.728l210.155-127.436c11.929-7.235 26.752-7.235 38.683.001l59.322 35.973c3.542 2.148 8.154 1.018 10.301-2.524 2.148-3.542 1.018-8.154-2.524-10.302l-59.321-35.972c-16.73-10.144-37.514-10.145-54.239 0l-210.154 127.435c-15.56 9.436-20.542 29.772-11.107 45.332z"></path></g></svg> 